<?xml version="1.0" encoding="UTF-8"?>
<svg viewBox="0 0 320 80" xmlns="http://www.w3.org/2000/svg">
  <!-- Canvas Credit Union Logo - Accurate Recreation -->
  
  <!-- Interlocking Pattern Group -->
  <g id="pattern" fill="#E8541E">
    <!-- Left chevron/arrow -->
    <polygon points="175,10 185,15 185,25 175,30 165,25 165,15"/>
    
    <!-- Second chevron (interlocked) -->
    <polygon points="190,5 200,10 200,20 190,25 190,35 180,30 180,20 180,10"/>
    
    <!-- Third chevron (middle) -->
    <polygon points="205,10 215,15 215,25 205,30 205,40 195,35 195,25 195,15"/>
    
    <!-- Fourth chevron -->
    <polygon points="220,5 230,10 230,20 220,25 220,35 210,30 210,20 210,10"/>
    
    <!-- Fifth chevron (interlocked) -->
    <polygon points="235,10 245,15 245,25 235,30 235,40 225,35 225,25 225,15"/>
    
    <!-- Sixth chevron (right) -->
    <polygon points="250,5 260,10 260,20 250,25 250,35 240,30 240,20 240,10"/>
    
    <!-- Seventh chevron -->
    <polygon points="265,10 275,15 275,25 265,30 265,40 255,35 255,25 255,15"/>
    
    <!-- Eighth chevron -->
    <polygon points="280,5 290,10 290,20 280,25 280,35 270,30 270,20 270,10"/>
    
    <!-- Final chevron (far right) -->
    <polygon points="295,10 305,15 305,25 295,30 285,25 285,15"/>
  </g>
  
  <!-- Text: "canvas" -->
  <g id="canvas-text" fill="#6B5D56">
    <text x="10" y="55" font-family="Courier New, Courier, monospace" font-size="32" font-weight="700" letter-spacing="-0.5">canvas</text>
    <text x="155" y="50" font-family="Arial, sans-serif" font-size="10" font-weight="400">®</text>
  </g>
  
  <!-- Text: "credit union" -->
  <text x="10" y="68" font-family="Arial, sans-serif" font-size="11" font-weight="500" fill="#8B8680" letter-spacing="1">credit union</text>
</svg>
